<svg width="181" height="33" viewBox="0 0 181 33" fill="none" xmlns="http://www.w3.org/2000/svg">
<g clip-path="url(#clip0_218_1779)">
<path d="M164.378 10.6673L181 27.1672V33H175.123L164.378 22.3344L153.634 33H147.757V27.1656L164.378 10.6656V10.6673ZM165.387 0L181 15.4985V0H165.387ZM147.759 0.0198V15.4985L163.35 0.0198H147.757H147.759Z" fill="#FF6666"/>
<path d="M8.31076 33H0V0H8.31076V33ZM22.4989 16.5L33.243 27.1656V33H27.3657L10.7458 16.5L27.3657 0H33.2414V5.8344L22.4972 16.5H22.4989ZM128.817 0V33H120.506V14.0844L112.195 22.3344L103.884 14.0844V33.0016H95.5737V0H101.451L112.195 10.6656L122.939 0H128.815H128.817ZM62.3307 24.75V33H37.3984V0H45.7092V24.75H62.3307ZM91.4183 0V5.8344L78.9522 18.2094V33.0016H70.6414V18.2077L58.1753 5.83275V0H64.0527L74.7968 10.6656L85.541 0H91.4183Z" fill="white"/>
</g>
<defs>
<clipPath id="clip0_218_1779">
<rect width="181" height="33" fill="white"/>
</clipPath>
</defs>
</svg>
